#!OML:ASF I:\Actors\actors\Patient Classification 2\Patient 1\Session 1\actor1.ASF
:FULLY-SPECIFIED
:DEGREES
694
root -0.65254 18.782 4.57328 4.66784 -0.884628 -1.02619
lowerback 7.14013 1.0758 0.953552
upperback -2.72112 1.65283 1.81839
thorax -6.88761 0.814429 1.15392
lowerneck -15.2267 -5.30199 -2.44139
upperneck 24.2743 -6.95015 0.373485
head 10.3778 -3.37471 -0.388749
rclavicle -1.93815e-014 -5.96354e-015
rhumerus 5.41661 -0.0198425 -41.5432
rradius 87.4744
rwrist 34.5067
rhand -38.5984 -50.6172
rfingers 7.12502
rthumb -11.6164 -80.2752
lclavicle -1.93815e-014 -5.96354e-015
lhumerus -20.8352 -35.6529 86.7956
lradius 121.365
lwrist 50.4806
lhand -19.4436 -19.5494
lfingers 7.12502
lthumb 6.87698 10.3189
rfemur 0 0 0
rtibia 0
rfoot 0 0
rtoes 0
lfemur -9.23999 -5.49516 -13.47
ltibia 22.6079
lfoot -20.6154 10.377
ltoes -55.1564
695
root -0.651453 18.7818 4.56639 4.70415 -0.654113 -1.04547
lowerback 7.26165 1.05204 1.0493
upperback -2.73011 1.63603 1.85506
thorax -6.96551 0.802541 1.13875
lowerneck -15.273 -5.21664 -2.26805
upperneck 24.3095 -6.82799 0.19896
head 10.3834 -3.32269 -0.463516
rclavicle -6.21202e-016 3.97569e-016
rhumerus 3.88704 0.583625 -42.5277
rradius 87.8095
rwrist 34.8015
rhand -38.7067 -51.4718
rfingers 7.12502
rthumb -11.7208 -81.1239
lclavicle -6.21202e-016 3.97569e-016
lhumerus -20.9638 -35.5927 86.9745
lradius 121.37
lwrist 50.5707
lhand -19.5213 -19.5142
lfingers 7.12502
lthumb 6.80193 10.3565
rfemur 0 0 0
rtibia 0
rfoot 0 0
rtoes 0
lfemur -9.38236 -5.60147 -13.4232
ltibia 22.6516
lfoot -20.5468 10.3071
ltoes -55.1864
696
root -0.649373 18.7827 4.56057 4.75117 -0.385893 -1.00736
lowerback 7.16807 1.04207 0.982015
upperback -2.61671 1.61844 1.96953
thorax -6.79639 0.80009 1.30082
lowerneck -15.3466 -5.16748 -2.10036
upperneck 24.1995 -6.71484 -0.110072
head 10.3369 -3.29231 -0.583795
rclavicle -9.96408e-015 -7.95139e-015
rhumerus 2.57958 1.07676 -43.3399
rradius 88.0372
rwrist 35.0236
rhand -38.6512 -52.8988
rfingers 7.12502
rthumb -11.6673 -82.554
lclavicle -9.96408e-015 -7.95139e-015
lhumerus -20.7995 -35.504 87.1423
lradius 121.339
lwrist 50.5666
lhand -19.4889 -19.3925
lfingers 7.12502
lthumb 6.83321 10.4773
rfemur 0 0 0
rtibia 0
rfoot 0 0
rtoes 0
lfemur -9.54061 -5.6912 -13.4443
ltibia 22.6873
lfoot -20.4376 10.2173
ltoes -55.294
697
root -0.646146 18.7843 4.55588 4.80452 -0.114995 -0.98931
lowerback 7.24667 1.0119 1.0673
upperback -2.6241 1.59132 2.01067
thorax -6.84805 0.783897 1.29834
lowerneck -15.4024 -5.13822 -1.99316
upperneck 24.1872 -6.64057 -0.332592
head 10.3292 -3.27448 -0.670535
rclavicle 1.93815e-014 9.54166e-015
rhumerus 1.04885 1.60712 -44.2377
rradius 88.3828
rwrist 35.088
rhand -38.7317 -53.5399
rfingers 7.12502
rthumb -11.7449 -83.1907
lclavicle 1.93815e-014 9.54166e-015
lhumerus -20.8765 -35.4158 87.3178
lradius 121.355
lwrist 50.6806
lhand -19.6789 -19.341
lfingers 7.12502
lthumb 6.64983 10.5346
rfemur 0 0 0
rtibia 0
rfoot 0 0
rtoes 0
lfemur -9.69164 -5.80996 -13.4395
ltibia 22.713
lfoot -20.3732 10.0681
ltoes -55.3063
698
root -0.642576 18.7852 4.55317 4.82702 0.125161 -0.986394
lowerback 7.25322 0.980613 1.12701
upperback -2.57491 1.55874 2.07935
thorax -6.79961 0.767033 1.34112
lowerneck -15.519 -5.07789 -2.04396
upperneck 24.1886 -6.52211 -0.392086
head 10.3509 -3.23052 -0.670641
rclavicle -1.12562e-014 1.27222e-014
rhumerus -0.382387 2.10761 -45.0321
rradius 88.7226
rwrist 35.2766
rhand -38.748 -53.2722
rfingers 7.12502
rthumb -11.7606 -82.922
lclavicle -1.12562e-014 1.27222e-014
lhumerus -20.9119 -35.3211 87.4925
lradius 121.31
lwrist 50.6747
lhand -19.8296 -19.4072
lfingers 7.12502
lthumb 6.50434 10.4729
rfemur 0 0 0
rtibia 0
rfoot 0 0
rtoes 0
lfemur -9.78637 -5.88114 -13.4211
ltibia 22.7217
lfoot -20.3147 9.88357
ltoes -55.2896
